<svg viewBox="0 0 640 400" data-background-color="#ffffff" preserveAspectRatio="xMidYMid meet" height="400" width="640" xmlns="http://www.w3.org/2000/svg" xmlns:xlink="http://www.w3.org/1999/xlink"><rect width="640" height="400" x="0" y="0" opacity="1" fill="#ffffff" data-fill-palette-color="background" id="background"></rect><g id="tight-bounds" transform="matrix(1,0,0,1,122.24000000000001,76.4)"><svg viewBox="0 0 395.52 247.2" height="247.2" width="395.52"><g><svg></svg></g><g><svg viewBox="0 0 395.52 247.2" height="247.2" width="395.52"><g transform="matrix(2.452, 0, 0, 2.452, 111.94, 1)"><svg version="1.1" xmlns="http://www.w3.org/2000/svg" xmlns:xlink="http://www.w3.org/1999/xlink" x="0" y="0" viewBox="0 0 70 100" enable-background="new 0 0 70 100" xml:space="preserve" height="100" width="70" class="icon-none" data-fill-palette-color="accent" id="none"><path d="M35 19L35 19H1.633l13.675 81h19.691H35h19.691l13.675-81H35zM13.455 65L8.56 36l52.88 0-4.896 29H13.455z" fill="#ff4993" data-fill-palette-color="accent"></path><path d="M68 9h-6l-2-9H35 10L8 9H2l-2 6h35 35L68 9zM34.857 11.475c-4.419 0-8-1.791-8-4s3.581-4 8-4c4.416 0 8 1.791 8 4S39.273 11.475 34.857 11.475z" fill="#ff4993" data-fill-palette-color="accent"></path></svg></g><rect width="348.05760000000004" height="91.52927532453369" fill="#ffffff" y="77.83536233773316" x="23.731199999999973" data-fill-palette-color="quaternary"></rect><g transform="matrix(1,0,0,1,39.55199999999999,95.72579568371003)"><svg viewBox="0 0 316.416 55.748408632579924" height="55.748408632579924" width="316.416"><g><svg viewBox="0 0 316.416 55.748408632579924" height="55.748408632579924" width="316.416"><g><svg viewBox="0 0 316.416 55.748408632579924" height="55.748408632579924" width="316.416"><g><svg viewBox="0 0 316.416 55.748408632579924" height="55.748408632579924" width="316.416"><g><svg viewBox="0 0 316.416 55.748408632579924" height="55.748408632579924" width="316.416"><g transform="matrix(1,0,0,1,0,0)"><svg width="316.416" viewBox="1.2124634981155396 -18.928071975708008 277.321533203125 48.860443115234375" height="55.748408632579924" data-palette-color="#3d4950"><path d="M21.811-18.518c4.226 0.866 7.621 2.96 10.186 6.283v0l-5.801 4.548c-0.832-0.919-1.675-1.674-2.527-2.263-0.854-0.583-1.803-0.982-2.848-1.196v0c-1.998-0.41-3.731 0.175-5.197 1.752-1.467 1.578-2.563 4.136-3.288 7.676v0c-0.724 3.533-0.711 6.292 0.039 8.277 0.758 1.979 2.169 3.18 4.233 3.603v0c1.11 0.228 2.196 0.212 3.256-0.048 1.06-0.259 2.276-0.728 3.647-1.406v0l3.269 6.509c-1.659 1.089-3.554 1.885-5.685 2.387-2.137 0.501-4.32 0.523-6.546 0.067v0c-3.37-0.691-6.14-1.983-8.311-3.877-2.171-1.894-3.65-4.338-4.439-7.33-0.787-2.999-0.782-6.445 0.016-10.338v0c0.766-3.736 2.114-6.814 4.046-9.235 1.932-2.421 4.272-4.092 7.019-5.013 2.747-0.921 5.724-1.052 8.931-0.396zM45.389-6.089c4.228 0.664 7.363 2.424 9.405 5.282 2.042 2.858 2.705 6.565 1.989 11.123v0c-0.446 2.839-1.39 5.245-2.833 7.218-1.443 1.973-3.28 3.379-5.51 4.217-2.229 0.831-4.733 1.029-7.513 0.592v0c-4.222-0.663-7.353-2.423-9.395-5.281-2.042-2.858-2.705-6.565-1.99-11.123v0c0.446-2.839 1.39-5.245 2.834-7.218 1.443-1.973 3.28-3.379 5.51-4.216 2.229-0.831 4.73-1.029 7.503-0.594zM44.285 0.945c-1.251-0.196-2.245 0.221-2.98 1.253-0.743 1.037-1.312 2.811-1.706 5.32v0c-0.409 2.608-0.418 4.51-0.024 5.705 0.386 1.194 1.205 1.89 2.456 2.086v0c1.258 0.197 2.255-0.22 2.99-1.252 0.743-1.037 1.312-2.811 1.705-5.319v0c0.409-2.608 0.418-4.51 0.025-5.706-0.386-1.194-1.208-1.89-2.466-2.087zM75.73-5.521c-0.967-0.109-1.695 0.064-2.182 0.519-0.487 0.448-0.8 1.288-0.938 2.52v0l-0.118 1.044 6.18 0.698-1.847 6.554-5.088-0.575-2.251 19.933-9.868-1.114 2.252-19.933-3.587-0.406 0.754-6.677 3.588 0.405 0.175-1.55c0.326-2.888 1.558-5.154 3.696-6.798 2.138-1.644 5.035-2.259 8.692-1.846v0c1.391 0.157 2.782 0.492 4.174 1.005 1.385 0.512 2.531 1.088 3.438 1.727v0l-3.298 5.937c-1.15-0.808-2.407-1.288-3.772-1.443zM93.632-3.91c-0.97-0.08-1.692 0.114-2.165 0.583-0.473 0.462-0.761 1.312-0.864 2.547v0l-0.087 1.047 6.199 0.514-1.652 6.606-5.102-0.423-1.659 19.991-9.896-0.821 1.659-19.992-3.598-0.298 0.556-6.697 3.597 0.298 0.129-1.554c0.24-2.897 1.405-5.198 3.493-6.905 2.088-1.706 4.966-2.408 8.634-2.103v0c1.395 0.116 2.796 0.409 4.201 0.88 1.399 0.471 2.562 1.012 3.488 1.624v0l-3.12 6.033c-1.173-0.773-2.444-1.216-3.813-1.33zM121.765 15.114c-0.042 0.832-0.161 1.881-0.358 3.146v0l-16.229-0.815c0.176 1.818 0.674 3.054 1.496 3.71 0.821 0.662 2.034 1.033 3.638 1.114v0c0.932 0.047 1.894-0.099 2.886-0.436 0.985-0.331 2.083-0.87 3.295-1.617v0l3.733 5.614c-3.368 2.474-7.106 3.608-11.214 3.402v0c-4.747-0.238-8.274-1.727-10.58-4.466-2.305-2.746-3.35-6.272-3.133-10.58v0c0.134-2.67 0.765-5.075 1.894-7.214 1.128-2.133 2.727-3.791 4.795-4.976 2.069-1.184 4.521-1.706 7.358-1.563v0c2.643 0.133 4.92 0.798 6.828 1.995 1.915 1.204 3.363 2.886 4.343 5.044 0.98 2.152 1.396 4.699 1.248 7.642zM112.121 12.167l0.017-0.35c0.046-1.573-0.133-2.804-0.535-3.691-0.409-0.895-1.199-1.372-2.371-1.431v0c-1.099-0.055-1.944 0.29-2.535 1.034-0.591 0.738-1.02 2.105-1.288 4.101v0zM149.683 15.256c-0.004 0.833-0.077 1.886-0.217 3.159v0l-16.25-0.086c0.257 1.808 0.811 3.021 1.661 3.639 0.85 0.625 2.078 0.941 3.685 0.949v0c0.933 0.005 1.888-0.183 2.863-0.565 0.969-0.375 2.042-0.963 3.22-1.762v0l3.981 5.441c-3.254 2.623-6.938 3.923-11.051 3.901v0c-4.753-0.025-8.343-1.354-10.769-3.987-2.426-2.64-3.628-6.116-3.605-10.429v0c0.014-2.673 0.537-5.104 1.569-7.292 1.032-2.181 2.554-3.91 4.568-5.186 2.013-1.276 4.44-1.906 7.28-1.891v0c2.647 0.014 4.95 0.576 6.911 1.686 1.967 1.117 3.489 2.732 4.564 4.845 1.075 2.106 1.605 4.632 1.59 7.578zM139.916 12.744l0.002-0.35c-0.025-1.573-0.258-2.795-0.701-3.663-0.449-0.876-1.26-1.317-2.433-1.323v0c-1.1-0.006-1.929 0.376-2.486 1.146-0.557 0.764-0.925 2.148-1.102 4.155v0zM193.485 26.69l-10.919 0.68-1.768-6.673-8.264 0.515-0.877 6.837-10.759 0.67 7.991-35.475 12.306-0.766zM175.347 0.086l-1.804 13.829 5.349-0.333zM209.556 17.572l3.816 5.814c-0.954 0.834-2.15 1.525-3.588 2.074-1.439 0.548-2.825 0.89-4.158 1.025v0c-3.3 0.301-5.831-0.373-7.593-2.024-1.762-1.65-2.824-4.256-3.186-7.818v0l-1.029-10.128-3.193 0.324-0.679-6.685 3.194-0.324-0.568-5.592 9.763-2.147 0.684 6.736 5.989-0.608-0.316 6.786-4.994 0.507 1.018 10.029c0.118 1.161 0.384 1.965 0.797 2.411 0.414 0.447 0.956 0.637 1.626 0.569v0c0.829-0.084 1.635-0.4 2.417-0.949zM223.438 24.41c-2.685 0.345-4.845-0.144-6.48-1.466-1.635-1.322-2.63-3.359-2.983-6.11v0l-3.772-29.348 9.72-2.268 3.85 29.954c0.115 0.893 0.569 1.288 1.362 1.186v0c0.364-0.047 0.702-0.157 1.016-0.333v0l2.647 6.788c-1.484 0.796-3.271 1.328-5.36 1.597zM252.037 10.094c0.151 0.928 0.378 1.593 0.68 1.996 0.303 0.41 0.77 0.682 1.4 0.815v0l-0.948 6.609c-1.805 0.159-3.314 0.058-4.529-0.304-1.207-0.357-2.275-1.088-3.204-2.193v0c-1.291 2.852-3.736 4.571-7.335 5.159v0c-2.606 0.425-4.839-0.014-6.7-1.318-1.854-1.305-2.983-3.195-3.387-5.669v0c-0.48-2.941 0.243-5.362 2.168-7.264 1.924-1.908 4.966-3.202 9.124-3.88v0l1.885-0.308-0.104-0.641c-0.216-1.323-0.624-2.171-1.226-2.546-0.608-0.374-1.652-0.44-3.133-0.198v0c-0.796 0.13-1.793 0.418-2.99 0.863-1.196 0.452-2.404 0.997-3.624 1.635v0l-3.14-5.892c1.511-0.922 3.185-1.719 5.021-2.389 1.836-0.671 3.53-1.133 5.083-1.387v0c4.158-0.679 7.309-0.372 9.451 0.92 2.143 1.292 3.484 3.589 4.023 6.892v0zM239.998 14.804c0.592-0.097 1.121-0.335 1.586-0.715 0.465-0.38 0.824-0.827 1.078-1.341v0l-0.64-3.918-1.046 0.171c-1.382 0.225-2.364 0.642-2.947 1.251-0.577 0.601-0.783 1.411-0.616 2.431v0c0.125 0.763 0.42 1.333 0.887 1.709 0.474 0.382 1.041 0.519 1.698 0.412zM263.24-11.667c1.932-0.401 3.852-0.487 5.758-0.256 1.908 0.237 3.578 0.755 5.01 1.553v0l-2.346 5.962c-1.068-0.391-2.18-0.647-3.336-0.768-1.148-0.116-2.247-0.064-3.298 0.154v0c-1.475 0.306-2.131 0.851-1.969 1.635v0c0.068 0.326 0.222 0.577 0.463 0.751 0.246 0.167 0.767 0.331 1.563 0.493 0.803 0.16 2.074 0.315 3.814 0.464v0c2.787 0.272 4.941 0.908 6.462 1.906 1.521 0.998 2.52 2.643 2.996 4.933v0c0.367 1.769 0.162 3.453-0.616 5.051-0.778 1.598-2.029 2.968-3.752 4.109-1.724 1.141-3.78 1.96-6.17 2.456v0c-2.298 0.477-4.528 0.556-6.692 0.236-2.162-0.314-4.068-0.983-5.718-2.01v0l3.55-6.068c1.15 0.585 2.355 0.995 3.616 1.23 1.259 0.229 2.46 0.224 3.603-0.013v0c0.888-0.184 1.541-0.463 1.961-0.836 0.412-0.378 0.563-0.829 0.454-1.351v0c-0.095-0.457-0.273-0.788-0.532-0.992-0.267-0.203-0.752-0.358-1.455-0.464-0.711-0.111-1.933-0.242-3.667-0.392v0c-5.391-0.453-8.519-2.759-9.382-6.917v0c-0.333-1.606-0.182-3.139 0.454-4.599 0.635-1.466 1.733-2.753 3.294-3.86 1.567-1.109 3.546-1.911 5.935-2.407z" opacity="1" transform="matrix(1,0,0,1,0,0)" fill="#3d4950" class="undefined-text-0" data-fill-palette-color="primary" id="text-0"></path></svg></g></svg></g></svg></g></svg></g><g></g></svg></g></svg></g></svg></g></svg><rect width="395.52" height="247.2" fill="none" stroke="none" visibility="hidden"></rect></g><defs></defs></svg>